<svg width="425" height="266" viewBox="0 0 425 266" fill="none" xmlns="http://www.w3.org/2000/svg">
<g clip-path="url(#clip0_29_2)">
<path fill-rule="evenodd" clip-rule="evenodd" d="M175.089 184.252L168.273 246.827C167.79 251.223 171.61 254.39 175.179 252.544C200.468 239.48 279.932 191.048 323.129 80.1574C325.11 75.0696 320.409 70.2623 316.168 73.0276C292.342 88.5381 240.339 120.505 208.685 125.862C208.685 125.862 229.291 112.564 242.062 91.5041C243.317 89.4457 243.306 86.7468 242.057 84.8032L200.256 19.9822C197.779 16.1388 192.378 17.5184 191.281 22.2698L175.247 91.4121L109.146 145.284C105.833 147.983 106.298 153.682 109.965 155.308L175.089 184.252V184.252ZM289.464 163.36C285.21 168.899 276.057 180.273 267.729 187.134C266.067 188.5 266.202 190.902 268.013 192.126L309.842 220.396C312.36 222.097 315.895 220.299 315.559 217.481C314.001 204.598 309.18 177.676 295.175 163.155C293.614 161.535 290.816 161.607 289.464 163.36Z" fill="url(#paint0_linear_29_2)"/>
<path d="M47.7147 176.8L25.9099 115.787L24.0724 168.452L34.8523 171.03V175.572H6.80005V171.03L16.845 168.452L18.9274 107.439L9.00503 104.984V100.441H32.5248L53.2271 159.736L72.9495 100.441H97.3268V104.984L86.4243 107.562L88.8743 168.452L99.8992 171.03V175.572H66.457V171.03L77.2369 168.452L75.277 115.91L54.6971 175.572L47.7147 176.8Z" fill="white"/>
<path d="M105.306 175.572V172.872L113.064 171.235V129.905L105.306 128.268V125.567H140.749V136.37H137.564L135.849 129.823H119.843V149.137H131.684L133.399 143.736H136.339V158.549H133.399L131.439 152.902H119.843V170.989H137.482L139.606 163.542H142.791V175.572H105.306Z" fill="white"/>
<path d="M149.568 175.572V172.872L156.918 171.235V129.905L149.568 128.268V125.567H170.965C176.845 125.567 181.554 126.576 185.093 128.595C188.686 130.614 191.272 133.424 192.851 137.025C194.485 140.626 195.301 144.8 195.301 149.547C195.301 154.294 194.539 158.658 193.015 162.641C191.49 166.57 189.04 169.707 185.665 172.053C182.344 174.399 177.906 175.572 172.353 175.572H149.568ZM173.252 172.217C176.355 172.217 178.859 171.48 180.765 170.007C182.725 168.534 184.222 166.652 185.256 164.36C186.291 162.014 186.999 159.531 187.38 156.912C187.761 154.294 187.951 151.838 187.951 149.547C187.951 145.509 187.271 141.99 185.91 138.989C184.549 135.934 182.534 133.587 179.866 131.951C177.253 130.259 174.014 129.414 170.148 129.414C168.787 129.414 167.535 129.468 166.392 129.577C165.303 129.686 164.404 129.795 163.697 129.905V170.826C164.731 171.208 166.174 171.535 168.025 171.808C169.93 172.08 171.673 172.217 173.252 172.217Z" fill="white"/>
<path d="M201.726 175.572V172.872L209.076 171.235V129.905L201.726 128.268V125.567H223.204V128.268L215.854 129.905V171.235L223.204 172.872V175.572H201.726Z" fill="white"/>
<path d="M251.899 176.8C248.632 176.8 244.998 176.473 240.997 175.818C237.077 175.245 233.524 174.304 230.339 172.994L232.054 157.649H237.322L239.527 168.207C240.915 168.534 242.752 168.902 245.039 169.312C247.326 169.721 249.735 169.925 252.267 169.925C257.085 169.925 260.882 168.902 263.659 166.856C266.517 164.728 267.946 161.864 267.946 158.263C267.946 155.153 267.13 152.534 265.496 150.406C263.945 148.196 261.209 146.314 257.289 144.759L244.427 139.603C242.058 138.621 239.894 137.352 237.934 135.797C236.056 134.16 234.545 132.032 233.402 129.414C232.258 126.795 231.687 123.644 231.687 119.961C231.687 113.25 233.851 108.012 238.179 104.247C242.507 100.482 248.632 98.6 256.554 98.6C259.984 98.6 263.414 98.8865 266.844 99.4594C270.274 99.9504 273.622 100.769 276.889 101.915L275.664 118.365H270.519L267.824 106.702C266.681 106.293 265.047 106.007 262.924 105.843C260.801 105.598 259.004 105.475 257.534 105.475C254.594 105.475 251.981 105.925 249.694 106.825C247.489 107.644 245.733 108.912 244.427 110.631C243.202 112.349 242.589 114.559 242.589 117.26C242.589 120.616 243.528 123.275 245.407 125.24C247.367 127.122 250.143 128.8 253.737 130.273L266.231 135.429C270.805 137.148 274.153 139.562 276.276 142.672C278.4 145.782 279.461 149.874 279.461 154.948C279.461 161.659 277.134 166.979 272.479 170.907C267.906 174.836 261.046 176.8 251.899 176.8Z" fill="white"/>
<path d="M292.261 175.572V172.872L300.999 171.235V129.823H289.403L287.769 137.025H284.829L284.176 125.567H324.519L324.029 137.025H320.844L319.292 129.823H307.777V171.235L316.434 172.872V175.572H292.261Z" fill="white"/>
<path d="M323.163 175.572V172.872L329.043 171.317L344.315 125.567L349.051 124.503L365.139 171.317L371.019 172.872V175.572H353.298V172.872L358.198 171.48L355.258 163.132H336.556L333.861 171.317L339.741 172.872V175.572H323.163ZM337.7 159.368H354.033L345.703 135.306L337.7 159.368Z" fill="white"/>
<path d="M374.429 175.572V172.872L382.024 171.235V129.905L374.429 128.268V125.567H394.274C398.466 125.567 401.841 126.167 404.4 127.367C406.959 128.568 408.81 130.123 409.954 132.032C411.151 133.942 411.75 135.988 411.75 138.171C411.75 139.807 411.396 141.553 410.689 143.409C410.035 145.209 408.865 146.846 407.177 148.319C405.489 149.792 403.066 150.911 399.909 151.675C401.324 152.111 402.44 152.657 403.257 153.311C404.074 153.966 404.809 154.976 405.462 156.34C406.17 157.649 407.068 159.504 408.157 161.905C409.246 164.251 410.77 167.334 412.73 171.153L418.283 172.872V175.572H407.177C404.999 171.044 403.23 167.361 401.869 164.524C400.562 161.632 399.5 159.368 398.684 157.731C397.867 156.094 397.159 154.948 396.56 154.294C395.961 153.584 395.308 153.148 394.6 152.984C393.893 152.82 392.994 152.739 391.905 152.739H388.802V171.235L396.397 172.872V175.572H374.429ZM388.802 149.465H393.784C397.323 149.465 399.963 148.455 401.705 146.437C403.447 144.418 404.319 141.826 404.319 138.662C404.319 135.77 403.475 133.451 401.787 131.705C400.099 129.905 397.486 129.004 393.947 129.004C393.185 129.004 392.341 129.086 391.415 129.25C390.544 129.359 389.673 129.55 388.802 129.823V149.465Z" fill="white"/>
</g>
<defs>
<linearGradient id="paint0_linear_29_2" x1="218.48" y1="18.5022" x2="210.512" y2="254.348" gradientUnits="userSpaceOnUse">
<stop stop-color="#BCDFFF"/>
<stop offset="1" stop-color="#53ACFF"/>
</linearGradient>
<clipPath id="clip0_29_2">
<rect width="425" height="265.2" fill="white"/>
</clipPath>
</defs>
</svg>
