<svg width="163" height="102" viewBox="0 0 163 102" fill="none" xmlns="http://www.w3.org/2000/svg">
<g clip-path="url(#clip0_27_2)">
<path fill-rule="evenodd" clip-rule="evenodd" d="M67.1517 70.6661L64.5374 94.6655C64.3524 96.3512 65.8174 97.5658 67.1861 96.8581C76.8852 91.8476 107.362 73.2724 123.929 30.7427C124.689 28.7914 122.886 26.9476 121.26 28.0082C112.122 33.957 92.177 46.2174 80.0369 48.2718C80.0369 48.2718 87.9396 43.1717 92.8379 35.0945C93.3191 34.3051 93.3148 33.2699 92.8359 32.5245L76.8041 7.66375C75.854 6.18969 73.7827 6.71881 73.3616 8.54112L67.2123 35.0592L41.8605 55.7205C40.5901 56.756 40.7683 58.9415 42.1747 59.5654L67.1517 70.6661V70.6661ZM111.018 62.6535C109.386 64.7778 105.876 69.1401 102.682 71.7715C102.045 72.2953 102.096 73.2164 102.791 73.6861L118.834 84.5284C119.799 85.1807 121.155 84.4911 121.026 83.4104C120.429 78.4694 118.579 68.1438 113.208 62.5746C112.61 61.9532 111.536 61.981 111.018 62.6535Z" fill="url(#paint0_linear_27_2)"/>
<path d="M18.3 67.808L9.93721 44.4077L9.23248 64.6064L13.3669 65.5951V67.3372H2.60803V65.5951L6.46055 64.6064L7.25924 41.206L3.45371 40.2643V38.5223H12.4742L20.4142 61.2634L27.9783 38.5223H37.3277V40.2643L33.1463 41.2531L34.0859 64.6064L38.3143 65.5951V67.3372H25.4882V65.5951L29.6226 64.6064L28.8709 44.4547L20.978 67.3372L18.3 67.808Z" fill="white"/>
<path d="M40.388 67.3372V66.3013L43.3635 65.6736V49.8222L40.388 49.1945V48.1586H53.9814V52.3019H52.7599L52.1022 49.7908H45.9632V57.1986H50.5048L51.1625 55.1269H52.2901V60.8083H51.1625L50.4108 58.6425H45.9632V65.5794H52.7286L53.5429 62.723H54.7645V67.3372H40.388Z" fill="white"/>
<path d="M57.3639 67.3372V66.3013L60.1828 65.6736V49.8222L57.3639 49.1945V48.1586H65.5701C67.8252 48.1586 69.6314 48.5457 70.9886 49.32C72.3668 50.0943 73.3586 51.1719 73.9642 52.5531C74.5906 53.9342 74.9038 55.535 74.9038 57.3555C74.9038 59.1761 74.6115 60.8502 74.0268 62.3777C73.4421 63.8844 72.5025 65.0876 71.2079 65.9875C69.9342 66.8873 68.2324 67.3372 66.1025 67.3372H57.3639ZM66.4471 66.0502C67.6373 66.0502 68.5978 65.7677 69.3286 65.2027C70.0803 64.6377 70.6546 63.9158 71.0513 63.0369C71.448 62.1371 71.7195 61.185 71.8656 60.1805C72.0118 59.1761 72.0849 58.2344 72.0849 57.3555C72.0849 55.807 71.8239 54.4573 71.3019 53.3064C70.7798 52.1345 70.0072 51.2347 68.9841 50.6069C67.9818 49.9582 66.7394 49.6339 65.2568 49.6339C64.7348 49.6339 64.2546 49.6548 63.8161 49.6967C63.3985 49.7385 63.0539 49.7804 62.7825 49.8222V65.5166C63.1792 65.6631 63.7325 65.7887 64.4425 65.8933C65.1733 65.9979 65.8415 66.0502 66.4471 66.0502Z" fill="white"/>
<path d="M77.3679 67.3372V66.3013L80.1868 65.6736V49.8222L77.3679 49.1945V48.1586H85.6054V49.1945L82.7865 49.8222V65.6736L85.6054 66.3013V67.3372H77.3679Z" fill="white"/>
<path d="M96.6107 67.808C95.3578 67.808 93.964 67.6825 92.4293 67.4313C90.9259 67.2116 89.5634 66.8507 88.3419 66.3484L88.9996 60.463H91.0198L91.8655 64.5122C92.398 64.6377 93.1027 64.779 93.9797 64.9359C94.8567 65.0929 95.7807 65.1714 96.7516 65.1714C98.5996 65.1714 100.056 64.779 101.121 63.9943C102.217 63.1782 102.765 62.0796 102.765 60.6984C102.765 59.5057 102.452 58.5012 101.826 57.6851C101.231 56.8376 100.181 56.1157 98.6779 55.5193L93.7448 53.5418C92.8365 53.1651 92.0065 52.6786 91.2547 52.0822C90.5343 51.4544 89.9549 50.6383 89.5164 49.6339C89.0779 48.6295 88.8587 47.421 88.8587 46.0085C88.8587 43.4346 89.6887 41.4257 91.3487 39.9818C93.0087 38.538 95.3578 37.816 98.396 37.816C99.7115 37.816 101.027 37.9259 102.342 38.1456C103.658 38.3339 104.942 38.6478 106.195 39.0873L105.725 45.3964H103.752L102.718 40.9235C102.28 40.7666 101.653 40.6567 100.839 40.5939C100.025 40.4998 99.3356 40.4527 98.7719 40.4527C97.6443 40.4527 96.642 40.6253 95.765 40.9706C94.9193 41.2845 94.2459 41.771 93.7448 42.4302C93.275 43.0893 93.0401 43.9368 93.0401 44.9727C93.0401 46.2596 93.4003 47.2797 94.1206 48.0331C94.8724 48.755 95.9373 49.3985 97.3154 49.9635L102.108 51.941C103.862 52.6001 105.146 53.5261 105.96 54.7189C106.774 55.9117 107.182 57.4811 107.182 59.4272C107.182 62.0011 106.289 64.0414 104.504 65.548C102.75 67.0547 100.119 67.808 96.6107 67.808Z" fill="white"/>
<path d="M112.091 67.3372V66.3013L115.442 65.6736V49.7908H110.994L110.368 52.5531H109.24L108.99 48.1586H124.463L124.275 52.5531H123.053L122.458 49.7908H118.042V65.6736L121.362 66.3013V67.3372H112.091Z" fill="white"/>
<path d="M123.943 67.3372V66.3013L126.198 65.705L132.055 48.1586L133.871 47.7506L140.042 65.705L142.297 66.3013V67.3372H135.5V66.3013L137.379 65.7677L136.252 62.5661H129.079L128.046 65.705L130.301 66.3013V67.3372H123.943ZM129.518 61.1222H135.782L132.587 51.8939L129.518 61.1222Z" fill="white"/>
<path d="M143.604 67.3372V66.3013L146.517 65.6736V49.8222L143.604 49.1945V48.1586H151.216C152.823 48.1586 154.118 48.3888 155.099 48.8492C156.081 49.3095 156.791 49.9059 157.229 50.6383C157.689 51.3707 157.918 52.1555 157.918 52.9925C157.918 53.6203 157.783 54.2899 157.511 55.0014C157.261 55.6919 156.812 56.3197 156.164 56.8847C155.517 57.4497 154.588 57.8787 153.377 58.1716C153.92 58.3391 154.348 58.5483 154.661 58.7994C154.974 59.0505 155.256 59.4377 155.507 59.9608C155.778 60.463 156.123 61.1745 156.54 62.0952C156.958 62.9951 157.542 64.1774 158.294 65.6422L160.424 66.3013V67.3372H156.164C155.329 65.6003 154.65 64.1878 154.128 63.0997C153.627 61.9906 153.22 61.1222 152.907 60.4944C152.594 59.8666 152.322 59.4272 152.093 59.1761C151.863 58.9041 151.612 58.7366 151.341 58.6739C151.069 58.6111 150.725 58.5797 150.307 58.5797H149.117V65.6736L152.03 66.3013V67.3372H143.604ZM149.117 57.3241H151.028C152.385 57.3241 153.398 56.937 154.066 56.1628C154.734 55.3885 155.068 54.3945 155.068 53.1808C155.068 52.0718 154.744 51.1824 154.097 50.5128C153.45 49.8222 152.448 49.477 151.09 49.477C150.798 49.477 150.474 49.5083 150.119 49.5711C149.785 49.613 149.451 49.6862 149.117 49.7908V57.3241Z" fill="white"/>
</g>
<defs>
<linearGradient id="paint0_linear_27_2" x1="83.7935" y1="7.09612" x2="80.7376" y2="97.55" gradientUnits="userSpaceOnUse">
<stop stop-color="#BCDFFF"/>
<stop offset="1" stop-color="#53ACFF"/>
</linearGradient>
<clipPath id="clip0_27_2">
<rect width="163" height="101.712" fill="white"/>
</clipPath>
</defs>
</svg>
